<svg xmlns="http://www.w3.org/2000/svg" viewBox="0 0 24 24" fill="none" stroke="currentColor" stroke-width="2" stroke-linecap="round" stroke-linejoin="round">
  <!-- Saucer plate at the bottom -->
  <path d="M3 19h18a1 1 0 0 1 1 1v0a1 1 0 0 1-1 1H3a1 1 0 0 1-1-1v0a1 1 0 0 1 1-1z" />
  <!-- Bowl body -->
  <path d="M5 13c0 2.8 2.2 5 5 5h4c2.8 0 5-2.2 5-5v-4H5v4z" />
  <!-- Steam lines rising from food -->
  <path d="M9 6c.5-1.5 0-2.5 0-2.5" />
  <path d="M12 7c.5-1.5 0-2.5 0-2.5" />
  <path d="M15 6c.5-1.5 0-2.5 0-2.5" />
</svg>
