<svg xmlns="http://www.w3.org/2000/svg" viewBox="0 0 24 24" fill="none" stroke="currentColor" stroke-width="2" stroke-linecap="round" stroke-linejoin="round">
  <path d="M3 20V6a2 2 0 0 1 2-2h6c1.1 0 2 .9 2 2v14" />
  <path d="M2 20h10" />
  <!-- Display Screen -->
  <rect x="5" y="7" width="4" height="3" rx="0.5" />
  <!-- Hose nozzle hanging on side -->
  <path d="M11 10h2a1 1 0 0 1 1 1v4a2 2 0 0 0 2 2h1a1 1 0 0 0 1-1v-5a1 1 0 0 0-.29-.71l-1.5-1.5" />
  <circle cx="7" cy="14" r="0.5" />
</svg>
